PathFileType	4	(X/Y/Z)	C:\Users\86182\Documents\cortex\Trimmed_M1_L6.trc
DataRate	CameraRate	NumFrames	NumMarkers	Units	OrigDataRate	OrigDataStartFrame	OrigNumFrames
100.00	100.00	       56	2	mm	100.00	721	       901
Frame#	Time	gripper			box			
		X1	Y1	Z1	X2	Y2	Z2	

721	7.200	197.89645	194.35753	293.08469	200.30553	193.47346	157.54239	
722	7.210	197.86636	194.36664	293.06497	200.30959	193.47400	157.54004	
723	7.220	197.88771	194.36185	293.08936	200.28589	193.46997	157.55486	
724	7.230	197.86516	194.35304	293.11319	200.32433	193.47290	157.53540	
725	7.240	197.90500	194.34448	293.07437	200.30885	193.46999	157.54544	
726	7.250	197.88942	194.35927	293.07837	200.34605	193.47389	157.52527	
727	7.260	197.90668	194.35269	293.09830	200.32721	193.47469	157.53197	
728	7.270	197.88298	194.36075	293.10428	200.33852	193.47231	157.53035	
729	7.280	197.85524	194.36856	293.08157	200.33852	193.47231	157.53035	
730	7.290	197.91891	194.36240	293.06088	200.36736	193.47510	157.51501	
731	7.300	197.87407	194.35548	293.10736	200.32858	193.47321	157.53329	
732	7.310	197.89159	194.36319	293.07623	200.39406	193.47513	157.50404	
733	7.320	197.86385	194.35806	293.08929	200.33731	193.47354	157.52928	
734	7.330	197.86745	194.35805	293.08826	200.29333	193.47182	157.54947	
735	7.340	197.88898	194.35402	293.08594	200.27461	193.47212	157.55675	
736	7.350	197.84468	194.36496	293.09592	200.35846	193.47502	157.51875	
737	7.360	197.84486	194.36397	293.08963	200.32503	193.47215	157.53606	
738	7.370	197.85291	194.36176	293.08713	200.26131	193.47148	157.56300	
739	7.380	197.82802	194.37158	293.07837	200.26155	193.47122	157.56323	
740	7.390	197.85172	194.36807	293.07510	200.34579	193.47414	157.52507	
741	7.400	197.83176	194.37100	293.07724	200.34532	193.47462	157.52463	
742	7.410	197.85045	194.36691	293.07520	200.34180	193.47359	157.52739	
743	7.420	197.85017	194.36282	293.09003	200.35893	193.47452	157.51920	
744	7.430	197.85828	194.35278	293.10709	200.27461	193.47212	157.55675	
745	7.440	197.84581	194.36485	293.08380	200.28970	193.47078	157.55228	
746	7.450	197.92000	194.35339	293.07935	200.34579	193.47414	157.52507	
747	7.460	197.84583	194.37012	293.11258	200.31891	193.47385	157.53642	
748	7.470	197.85213	194.35678	293.09338	200.33356	193.47276	157.53181	
749	7.480	197.85413	194.36613	293.11060	200.29236	193.47281	157.54860	
750	7.490	197.84485	194.36157	293.09311	200.30293	193.47142	157.54605	
751	7.500	197.84732	194.37071	293.08279	200.35941	193.47403	157.51962	
752	7.510	197.85037	194.36131	293.11313	200.33778	193.47305	157.52971	
753	7.520	197.84148	194.36746	293.09149	200.33192	193.47449	157.53029	
754	7.530	197.89935	194.36392	293.07037	200.27940	193.47192	157.55504	
755	7.540	197.82057	194.36990	293.09174	200.34250	193.47285	157.52803	
756	7.550	197.85710	194.36206	293.08148	200.29697	193.47287	157.54665	
757	7.560	197.81296	194.37376	293.08298	200.31937	193.47336	157.53687	
758	7.570	197.84001	194.36566	293.09341	200.32742	193.47444	157.53218	
759	7.580	197.85399	194.37024	293.08432	200.30103	193.47340	157.54430	
760	7.590	197.85205	194.35570	293.10742	200.31937	193.47336	157.53687	
761	7.600	197.84955	194.36206	293.09387	200.31671	193.47133	157.54053	
762	7.610	197.85789	194.36981	293.08960	200.34579	193.47414	157.52507	
763	7.620	197.83940	194.36433	293.11282	200.27553	193.47113	157.55763	
764	7.630	197.80128	194.37408	293.09012	200.37201	193.47490	157.51335	
765	7.640	197.84486	194.36873	293.08267	200.32742	193.47444	157.53218	
766	7.650	197.85855	194.35872	293.11819	200.31056	193.47301	157.54091	
767	7.660	197.82681	194.36824	293.10339	200.24910	193.46957	157.57043	
768	7.670	197.83319	194.37070	293.09424	200.38480	193.47552	157.50732	
769	7.680	197.85849	194.36113	293.11472	200.33310	193.47325	157.53137	
770	7.690	197.84383	194.36588	293.11926	200.30103	193.47340	157.54430	
771	7.700	197.84406	194.36729	293.08832	200.29190	193.47331	157.54816	
772	7.710	197.81995	194.37469	293.08719	200.30220	193.47217	157.54539	
773	7.720	197.84686	194.36658	293.11340	200.32410	193.47314	157.53519	
774	7.730	197.82443	194.37279	293.07767	200.30531	193.47371	157.54218	
775	7.740	197.86011	194.35994	293.10245	200.32454	193.47266	157.53563	
776	7.750	197.81985	194.37070	293.08624	200.31601	193.47206	157.53987	
